<?xml version="1.0" standalone="no"?>
<!DOCTYPE svg PUBLIC "-//W3C//DTD SVG 20010904//EN"
 "http://www.w3.org/TR/2001/REC-SVG-20010904/DTD/svg10.dtd">
<svg version="1.0" xmlns="http://www.w3.org/2000/svg"
 width="570.000000pt" height="380.000000pt" viewBox="0 0 570.000000 380.000000"
 preserveAspectRatio="xMidYMid meet">

<g transform="translate(0.000000,380.000000) scale(0.100000,-0.100000)"
fill="#000000" stroke="none">
<path d="M2307 3620 c11 -83 58 -180 118 -244 31 -33 28 -37 -50 -62 -35 -11
-103 -18 -225 -21 -190 -6 -336 9 -459 47 -36 11 -67 18 -69 16 -2 -2 52 -44
119 -92 119 -86 229 -179 229 -193 0 -4 -30 -17 -67 -30 -38 -13 -151 -56
-253 -96 -297 -119 -442 -152 -525 -122 -22 8 -49 18 -60 21 -12 5 -3 -9 22
-32 81 -75 296 -160 431 -170 47 -3 71 -9 69 -16 -8 -25 -158 -131 -242 -172
-94 -45 -176 -68 -280 -79 -33 -3 -76 -9 -95 -12 l-35 -6 55 -13 c86 -20 197
-27 290 -16 47 6 86 9 88 7 5 -5 -122 -97 -158 -114 l-35 -16 89 -3 c75 -2
105 2 178 24 48 15 88 31 88 36 0 10 8 12 -84 -17 -95 -29 -196 -43 -196 -26
0 6 4 11 9 11 5 0 41 29 79 64 38 34 81 66 95 70 15 3 27 11 27 17 0 7 -7 8
-17 4 -92 -35 -368 -60 -409 -37 -16 10 -14 11 19 12 119 1 293 61 407 141 78
55 160 130 160 146 0 6 -36 13 -82 16 -46 3 -123 17 -171 31 -89 27 -247 93
-247 105 0 3 44 7 98 7 117 2 170 17 482 141 277 109 290 114 290 124 0 18
-116 121 -208 185 -82 56 -92 65 -62 59 208 -40 384 -52 529 -36 100 12 204
42 217 62 3 5 -13 30 -36 55 -39 43 -110 173 -110 202 0 8 16 -6 36 -30 118
-141 316 -245 604 -316 41 -10 82 -22 91 -26 11 -5 6 14 -19 63 -29 59 -35 83
-40 160 -3 64 -1 91 7 91 6 0 11 -13 11 -29 0 -62 85 -267 123 -299 12 -10 14
-2 15 49 2 109 25 170 92 242 38 41 124 96 134 86 3 -3 -4 -32 -16 -65 -28
-76 -30 -235 -4 -304 24 -65 59 -112 97 -134 l34 -19 -24 26 -24 27 44 0 c93
0 190 -44 278 -126 109 -101 172 -208 254 -430 57 -156 102 -246 150 -300 46
-53 33 -55 -52 -9 -36 19 -66 34 -67 32 -2 -1 10 -48 26 -102 56 -195 78 -285
70 -285 -4 0 -10 6 -13 13 -8 20 -98 137 -106 137 -21 0 29 -221 65 -292 36
-70 -66 5 -122 89 l-38 57 -9 -34 c-5 -19 -7 -101 -5 -182 2 -82 2 -148 1
-148 -8 0 -53 106 -53 123 0 9 -4 17 -9 17 -4 0 -4 -23 1 -51 5 -28 7 -53 4
-56 -2 -3 -21 26 -40 63 -39 77 -46 64 -22 -41 8 -33 13 -62 11 -64 -2 -2 -14
13 -26 33 -12 20 -23 35 -24 34 -2 -2 3 -39 11 -82 8 -43 13 -80 10 -83 -2 -3
-19 20 -36 51 -18 31 -36 53 -41 50 -5 -3 -14 -25 -20 -50 -18 -69 -25 -60
-24 29 1 74 4 87 33 133 39 62 87 167 96 211 9 41 -16 90 -90 177 -98 116
-210 159 -264 101 -13 -14 -29 -25 -35 -25 -21 0 -65 -162 -65 -245 0 -69 -19
-38 -21 35 l-1 55 -10 -50 c-24 -132 -26 -135 -26 -40 -1 52 5 106 12 128 8
20 10 37 6 37 -8 0 -43 -116 -58 -190 l-9 -45 -8 50 c-10 59 1 374 14 429 5
21 6 35 1 30 -13 -14 -30 -146 -30 -237 0 -78 -2 -87 -32 -133 -35 -51 -168
-197 -175 -190 -2 2 10 25 28 51 56 84 119 269 119 350 l-1 40 -30 -35 c-34
-40 -128 -228 -154 -308 -32 -96 -40 -53 -40 196 1 159 5 238 14 265 20 58 6
55 -24 -4 -34 -69 -68 -115 -149 -199 -36 -39 -60 -70 -53 -70 16 0 148 134
166 168 22 41 26 23 20 -79 -3 -55 -3 -132 0 -170 l7 -70 -41 -18 c-42 -19
-55 -12 -35 17 7 9 -3 1 -21 -19 -19 -20 -55 -44 -81 -54 -63 -24 -63 -24 -67
20 -3 47 -93 83 -121 50 -12 -15 -10 -96 4 -127 6 -13 -1 -21 -31 -33 -85 -37
-79 -37 -107 3 -28 42 -73 72 -105 72 -12 0 -21 6 -21 13 0 8 22 58 49 113 26
54 65 140 86 189 21 50 41 94 45 98 4 4 10 -29 13 -75 5 -55 3 -84 -4 -89 -34
-21 77 -28 125 -9 14 6 2 8 -36 5 -55 -4 -58 -3 -64 22 -12 46 3 295 20 342 9
24 14 46 11 49 -8 8 -26 -49 -40 -123 -9 -50 -36 -116 -92 -230 -44 -88 -92
-191 -108 -230 -44 -108 -52 -111 -60 -19 -13 147 21 296 104 462 22 46 37 80
31 77 -17 -10 -81 -132 -111 -213 -48 -125 -171 -352 -191 -352 -3 0 0 20 7
44 13 44 39 229 51 361 7 89 -12 69 -22 -22 -4 -40 -19 -89 -39 -131 -45 -94
-172 -259 -239 -310 -62 -48 -76 -76 -21 -42 l34 21 21 -41 c20 -38 20 -43 5
-59 -23 -27 -106 -69 -187 -97 -39 -13 -73 -24 -76 -24 -2 0 12 18 31 39 42
46 62 83 88 159 34 98 27 104 -43 36 -63 -60 -160 -143 -187 -159 -10 -6 -7 4
6 26 23 37 60 147 93 278 24 94 20 123 -5 37 -9 -31 -21 -56 -26 -56 -6 0 -46
-29 -90 -65 -44 -36 -82 -65 -85 -65 -3 0 9 20 26 44 16 25 30 48 30 51 0 4
14 27 30 52 41 61 76 131 59 117 -30 -24 -145 -35 -234 -23 -47 7 -85 15 -85
19 0 4 18 15 40 25 45 20 139 106 160 145 7 14 -15 -3 -51 -38 -38 -37 -90
-76 -127 -94 -34 -17 -62 -34 -62 -39 0 -18 92 -33 207 -34 66 0 120 -2 118
-5 -24 -48 -106 -175 -132 -205 -69 -81 25 -43 147 60 32 27 46 33 48 23 5
-24 -58 -190 -89 -235 -34 -49 -35 -53 -10 -53 20 0 144 92 214 158 20 20 37
32 37 28 0 -26 -79 -151 -125 -197 -29 -29 -52 -56 -49 -60 4 -7 124 13 158
27 17 6 18 3 11 -47 -12 -84 -33 -159 -56 -190 -59 -84 44 -21 133 80 l45 52
6 -80 c9 -117 73 -290 123 -331 22 -19 26 -8 15 41 -12 50 -14 113 -5 157 5
27 9 30 29 22 15 -6 32 -4 50 6 26 13 30 13 50 -6 12 -11 28 -20 36 -20 8 0
-17 29 -56 64 l-70 63 31 26 c17 15 44 52 60 82 32 61 25 59 124 39 14 -2 36
-20 50 -41 43 -63 111 -89 161 -63 40 22 64 111 50 187 -6 29 -5 46 3 51 13
10 432 202 440 202 3 0 6 -10 6 -22 0 -13 4 -30 10 -38 7 -12 10 -11 16 5 41
112 139 323 168 360 22 28 21 7 -4 -90 -29 -115 -84 -220 -146 -282 -29 -30
-46 -53 -38 -53 45 0 151 89 233 195 l46 60 7 -95 c4 -52 12 -108 19 -125 13
-28 14 -26 19 52 6 91 20 123 20 47 1 -54 23 -171 35 -182 4 -4 5 11 2 33 -4
22 -4 64 0 94 l6 53 18 -57 c9 -31 19 -58 21 -60 2 -2 3 45 3 103 0 59 6 137
13 173 13 62 17 69 69 113 45 38 60 45 82 39 65 -16 158 -102 228 -211 l34
-54 -26 -56 c-31 -67 -123 -235 -172 -310 l-34 -53 -77 3 -77 3 -7 -125 c-5
-69 -6 -131 -3 -138 8 -22 25 -3 25 29 0 19 19 62 50 112 39 64 58 84 83 93
21 7 43 27 63 58 17 25 35 50 39 54 13 11 -3 -131 -20 -178 -18 -50 -18 -50
-6 -50 9 0 43 65 83 159 l14 34 20 -29 c11 -16 32 -49 46 -74 l26 -45 -130
-164 c-71 -91 -198 -246 -281 -344 -84 -99 -178 -216 -210 -261 -71 -98 -115
-146 -137 -146 -9 0 -40 25 -70 55 -48 49 -59 55 -95 55 -72 0 -156 -20 -293
-71 -130 -48 -134 -49 -166 -34 -28 13 -36 25 -50 76 -23 85 -84 202 -188 362
-49 76 -109 179 -133 230 -30 63 -44 84 -45 67 0 -39 61 -158 160 -310 98
-151 158 -266 186 -360 20 -66 46 -90 100 -90 14 0 92 22 173 49 135 45 241
70 241 56 0 -12 -82 -211 -91 -220 -19 -19 -7 -45 36 -75 25 -17 49 -40 55
-50 10 -20 25 -20 699 -20 378 0 716 3 750 6 l61 7 -2 546 -3 545 -52 36 c-75
51 -115 74 -142 80 -19 4 -28 19 -47 74 -13 38 -29 73 -36 77 -7 5 -41 9 -74
9 l-62 0 -11 63 c-6 35 -11 106 -11 158 l0 94 46 -53 c40 -46 161 -138 170
-130 1 2 -13 35 -31 73 -32 65 -89 254 -81 263 4 3 60 -73 117 -159 35 -51 29
-3 -24 193 -30 112 -54 204 -53 206 2 1 27 -9 57 -23 31 -14 72 -25 97 -25
l44 0 -44 33 c-61 46 -119 138 -168 264 -86 226 -103 263 -147 339 -27 47 -77
110 -123 156 -100 100 -176 138 -294 147 l-81 6 -18 36 c-10 20 -25 70 -33
110 -23 108 -6 205 54 321 7 14 -62 -4 -108 -28 -97 -49 -180 -171 -180 -266
0 -27 -4 -48 -9 -48 -12 0 -66 131 -86 206 -8 33 -16 80 -16 107 -1 26 -5 47
-10 47 -17 0 -33 -80 -33 -165 0 -73 5 -102 26 -153 22 -53 24 -62 10 -57 -10
3 -53 15 -98 25 -249 58 -471 192 -591 355 l-22 30 6 -45z m-253 -1653 c-16
-100 -49 -211 -69 -231 -17 -17 -20 -36 -5 -36 5 0 18 9 28 20 18 20 19 20 46
-9 l28 -29 -41 5 c-39 5 -43 3 -96 -52 -31 -31 -54 -60 -51 -63 4 -3 28 16 55
43 60 59 78 67 119 49 30 -12 32 -16 32 -62 0 -32 -5 -54 -15 -62 -10 -9 -15
-9 -15 -1 0 6 -5 11 -11 11 -5 0 -9 -8 -8 -17 3 -30 -1 -43 -11 -43 -14 0 -13
87 1 96 7 4 20 -4 30 -17 10 -13 19 -20 19 -15 0 17 -33 46 -51 46 -13 0 -20
-10 -25 -35 l-6 -35 -25 20 c-74 58 -145 -21 -128 -144 6 -48 34 -116 61 -147
10 -11 13 -41 11 -107 -1 -51 -5 -92 -9 -92 -10 0 -65 140 -77 198 -6 29 -11
90 -12 135 l0 82 -32 -40 c-49 -60 -130 -142 -124 -125 8 26 26 123 32 172 5
34 11 49 25 53 11 3 47 27 81 52 48 35 64 42 70 31 7 -10 9 -10 8 2 0 8 -15
40 -33 70 l-33 55 65 69 c59 64 162 207 162 227 0 5 4 9 9 9 4 0 2 -37 -5 -83z
m135 -268 c-8 -46 -9 -79 -1 -112 5 -26 6 -47 2 -47 -4 0 -21 3 -37 6 -28 5
-31 10 -36 57 -6 44 -21 75 -71 142 -6 8 7 37 39 86 26 41 62 101 79 134 l31
60 3 -130 c2 -73 -2 -159 -9 -196z m425 140 c22 -26 36 -69 22 -69 -2 0 -11
-3 -19 -6 -10 -3 -17 3 -21 20 -3 14 -11 26 -16 26 -12 0 -12 -3 -1 -33 8 -19
6 -27 -5 -31 -18 -7 -34 31 -34 79 0 53 36 60 74 14z m-287 -89 c35 -21 83
-89 83 -117 0 -10 -14 5 -30 34 -32 56 -54 73 -94 73 -40 0 -61 -42 -60 -119
1 -48 -1 -60 -8 -47 -6 10 -8 47 -6 82 3 49 9 69 28 89 28 30 45 31 87 5z
m1569 -297 c-3 -8 -12 -13 -19 -11 -15 5 -53 82 -62 128 -6 32 -3 29 40 -34
26 -38 44 -75 41 -83z m-1901 63 c33 -35 49 -72 35 -81 -4 -2 -15 14 -26 36
-21 48 -54 73 -83 64 -25 -8 -45 -66 -37 -111 5 -23 3 -34 -5 -34 -16 0 -7
123 10 144 23 28 70 20 106 -18z m1832 -51 c31 -40 31 -40 12 -64 -24 -29 -29
-25 -40 36 -5 26 -12 57 -15 68 -7 23 -1 17 43 -40z"/>
<path d="M1910 1686 c4 -4 16 -4 26 2 16 9 14 10 -8 9 -15 -1 -23 -6 -18 -11z"/>
<path d="M1860 1590 c-13 -8 -13 -10 2 -10 9 0 20 5 23 10 8 13 -5 13 -25 0z"/>
<path d="M1855 1560 c-3 -6 1 -7 9 -4 18 7 21 14 7 14 -6 0 -13 -4 -16 -10z"/>
<path d="M2660 2347 c0 -8 -19 -40 -41 -71 -54 -76 -109 -182 -108 -209 0 -16
5 -10 17 19 21 49 98 181 112 189 13 8 13 -159 0 -204 -5 -19 -15 -39 -22 -44
-9 -6 -7 -7 5 -3 10 3 22 6 27 6 8 0 15 70 24 238 3 54 1 92 -5 92 -5 0 -9 -6
-9 -13z"/>
<path d="M3461 2074 c-21 -27 -61 -124 -61 -149 0 -8 13 -30 30 -48 l30 -35
-35 -58 c-38 -63 -38 -63 0 -123 26 -42 47 -49 103 -35 42 12 26 32 -21 27
-42 -5 -45 -3 -67 31 l-22 37 31 50 c37 61 38 71 6 113 -14 18 -25 41 -25 52
0 24 36 103 56 126 15 16 19 15 64 -13 27 -17 53 -42 60 -59 14 -33 28 -138
23 -172 -5 -38 -33 -106 -49 -118 -17 -15 -18 -30 -1 -30 6 0 21 15 33 33 94
147 96 155 69 238 -16 48 -53 88 -120 133 -50 33 -78 33 -104 0z"/>
<path d="M2760 2012 c0 -4 -35 -7 -78 -8 -92 -1 -169 -24 -203 -60 -19 -20
-24 -37 -24 -79 0 -34 -6 -60 -16 -72 -30 -35 -32 -48 -2 -16 21 21 33 46 38
79 3 25 9 53 12 61 18 45 202 84 309 64 57 -11 84 -8 48 5 -10 4 -34 13 -51
20 -18 7 -33 10 -33 6z"/>
<path d="M2420 1975 c13 -14 25 -23 27 -21 6 6 -30 46 -41 46 -5 0 1 -11 14
-25z"/>
<path d="M2448 1983 c7 -3 16 -2 19 1 4 3 -2 6 -13 5 -11 0 -14 -3 -6 -6z"/>
<path d="M2398 1933 c6 -2 18 -2 25 0 6 3 1 5 -13 5 -14 0 -19 -2 -12 -5z"/>
<path d="M2402 1886 c-20 -22 -21 -24 -3 -19 10 3 21 13 24 24 6 24 7 24 -21
-5z"/>
<path d="M2385 1810 c-3 -5 -2 -10 4 -10 5 0 13 5 16 10 3 6 2 10 -4 10 -5 0
-13 -4 -16 -10z"/>
<path d="M2212 1300 c0 -14 2 -19 5 -12 2 6 2 18 0 25 -3 6 -5 1 -5 -13z"/>
<path d="M2903 1295 c-7 -11 -32 -19 -83 -26 -148 -18 -320 -73 -464 -147 -94
-48 -146 -86 -146 -106 0 -7 19 -30 41 -51 23 -22 48 -55 55 -72 8 -18 20 -33
28 -33 28 0 235 110 318 169 47 35 128 100 179 147 51 46 101 84 112 84 23 0
18 18 -10 37 -19 13 -22 12 -30 -2z m-66 -71 c2 -5 -70 -40 -159 -77 -238 -98
-312 -138 -318 -174 -4 -23 -11 -28 -35 -30 -24 -2 -35 4 -57 34 -16 20 -28
44 -28 54 0 26 237 142 335 164 42 9 85 15 96 12 10 -3 20 0 22 7 2 6 25 11
55 11 29 0 52 4 52 8 0 12 33 4 37 -9z"/>
<path d="M2295 1129 c-68 -42 -82 -58 -20 -23 66 37 92 54 80 54 -6 0 -32 -14
-60 -31z"/>
<path d="M3335 1110 c-31 -32 -569 -446 -642 -495 -46 -30 -57 -43 -20 -24 34
18 101 67 369 272 263 201 336 261 327 271 -3 3 -18 -8 -34 -24z"/>
</g>
</svg>
